<svg width="379" height="92" viewBox="0 0 379 92" fill="none" xmlns="http://www.w3.org/2000/svg">
<g clip-path="url(#clip0_1_1210)">
<path fill-rule="evenodd" clip-rule="evenodd" d="M26.6282 56.2C26.6282 52.2 23.2246 48.8 19.2204 48.8C19.0202 48.8 19.0202 48.8 18.8199 48.8C14.6155 48.8 11.0117 52 10.2109 56.2H26.6282ZM10.0106 63.2C11.2119 67.8 15.0159 70.4 20.2214 70.4C23.8252 70.4 27.429 69 30.4322 66.8L34.4364 73.6C30.4322 77 25.2267 79 20.0212 79C9.41002 79.6 0.600719 71.4 8.48653e-05 61C8.48653e-05 60.6 8.48653e-05 60.4 8.48653e-05 60C-0.200126 49.6 8.20875 41.2 18.4195 41C18.6197 41 18.8199 41 19.0202 41C28.2299 40.6 35.8379 47.8 36.0381 57C36.0381 57.4 36.0381 57.6 36.0381 58C36.0381 59.8 35.8379 61.6 35.4375 63.4H10.0106V63.2Z" fill="black"/>
<path fill-rule="evenodd" clip-rule="evenodd" d="M99.9056 78H90.0952V56.8C90.0952 52.4 87.4925 49.8 83.6885 49.8C80.0847 49.6 77.0815 52.4 77.0815 56C77.0815 56.2 77.0815 56.4 77.0815 56.6V78H67.0709V56.8C67.0709 52.4 64.4682 49.8 60.6642 49.8C57.0604 49.6 54.0572 52.4 53.857 56C53.857 56.2 53.857 56.6 53.857 56.8V78H43.8464V41.6H52.8559V44.8C55.6589 42.2 59.2627 40.6 63.0667 40.8C67.2712 40.6 71.4756 42.4 73.8781 46C76.8813 42.6 81.4862 40.6 86.091 40.8C94.7001 40.8 99.9056 46.6 99.9056 55.4V78Z" fill="black"/>
<path fill-rule="evenodd" clip-rule="evenodd" d="M109.315 78H119.326V41.6H109.315V78ZM114.321 22.2C117.724 22 120.527 24.6 120.727 28C120.928 31.4 118.325 34.2 114.921 34.4C114.721 34.4 114.521 34.4 114.12 34.4C110.717 34.6 107.914 32 107.714 28.6C107.513 25.2 110.116 22.4 113.52 22.2C113.92 22.2 114.12 22.2 114.321 22.2Z" fill="black"/>
<path fill-rule="evenodd" clip-rule="evenodd" d="M130.938 65.8C133.541 68.8 137.145 70.6 141.149 70.8C143.752 70.8 145.754 69.8 145.754 67.8C145.754 66.2 144.753 65.6 141.95 64.4L138.146 62.8C131.539 60 128.135 57 128.135 51.6C128.135 44.8 133.541 40.8 141.55 40.8C146.555 40.6 151.36 42.6 154.563 46.2L149.558 52.2C147.356 50 144.553 48.8 141.349 48.8C138.947 48.8 137.545 49.6 137.545 51.4C137.545 53.2 138.546 53.4 141.349 54.6L144.953 56C151.961 58.8 155.164 61.8 155.164 67C155.364 70.4 153.762 73.6 151.16 75.6C148.157 77.8 144.753 78.8 140.949 78.6C135.143 78.8 129.537 76.2 125.933 71.6L130.938 65.8Z" fill="black"/>
<path fill-rule="evenodd" clip-rule="evenodd" d="M164.373 65.8C166.976 68.8 170.58 70.6 174.584 70.8C177.187 70.8 179.189 69.8 179.189 67.8C179.189 66.2 178.188 65.6 175.385 64.4L171.581 62.8C164.974 60 161.57 57 161.57 51.8C161.57 45 166.976 41 174.985 41C179.99 40.8 184.795 42.8 187.998 46.4L182.993 52.4C180.791 50.2 177.988 49 174.784 49C172.382 49 170.98 49.8 170.98 51.6C170.98 53.4 171.981 53.6 174.784 54.8L178.388 56.2C185.396 59 188.599 62 188.599 67.2C188.799 70.6 187.198 73.8 184.595 75.8C181.592 78 177.988 79 174.384 78.8C168.578 79 162.972 76.4 159.368 71.8L164.373 65.8Z" fill="black"/>
<path fill-rule="evenodd" clip-rule="evenodd" d="M216.629 64H208.821C205.617 64 203.815 65.2 203.815 67.6C203.815 70 205.817 71.6 209.021 71.6C213.025 71.8 216.429 68.8 216.629 64.8C216.629 64.6 216.629 64.6 216.629 64.4V64V64ZM226.639 78H217.43V74.4C214.426 77.4 210.422 79 206.418 78.8C198.61 78.8 193.805 74.4 193.805 68C193.805 61.6 199.01 57.4 207.619 57.4H216.829V55.8C216.829 51.8 214.426 49.4 210.022 49.4C206.218 49.4 203.615 51 200.412 54.4L195.206 48.4C199.01 43.6 204.816 40.8 211.023 40.8C220.433 40.8 226.639 46.4 226.639 56.4V78V78Z" fill="black"/>
<path fill-rule="evenodd" clip-rule="evenodd" d="M258.473 50.4H255.87C249.864 50.4 246.06 53.6 246.06 59.8V78H236.049V41.6H245.259V46C247.662 43 251.466 41.2 255.27 41.2C256.271 41.2 257.472 41.4 258.473 41.6V50.4Z" fill="black"/>
<path fill-rule="evenodd" clip-rule="evenodd" d="M299.917 41.6L282.498 81C279.095 88.6 274.69 92 268.083 92C265.881 92 263.678 91.6 261.676 91.2V82.8C263.879 83 265.28 83.2 265.881 83.2C269.284 83.6 272.488 81.4 273.489 78.2L274.69 75.6L260.675 41.4H271.286L280.096 65.2L289.506 41.4L299.917 41.6Z" fill="black"/>
<path fill-rule="evenodd" clip-rule="evenodd" d="M331.15 47.6L369.991 0L316.534 17.8L327.746 32.8L316.534 26.2L309.527 32.8L331.15 47.6Z" fill="#0EF3A0"/>
<path fill-rule="evenodd" clip-rule="evenodd" d="M373.394 17.2L373.594 19.2H374.996C375.396 19.2 376.598 19 376.397 18C376.197 17 375.396 17 374.996 17.2H373.394ZM374.996 16.8C375.196 16.8 376.598 16.6 376.798 18C376.798 18.6 376.397 19 375.997 19.2C376.598 19.2 376.998 19.8 376.798 20.2C376.998 21.2 376.998 21.2 376.998 21.4H376.598C376.598 21.2 376.598 21.2 376.397 20.4C376.197 19.6 376.197 19.4 374.996 19.4H373.394L373.594 21.6H373.394L372.994 17L374.996 16.8ZM374.796 15.4C372.794 15.6 371.192 17.4 371.192 19.4C371.392 21.4 373.194 23 375.196 23C377.198 23 378.8 21 378.8 19C378.6 16.8 376.798 15.4 374.796 15.4ZM374.796 15.2C376.998 15 378.8 16.8 379 19C379.2 21.2 377.398 23 375.196 23.2C372.994 23.4 371.192 21.6 370.992 19.6C370.792 17.2 372.393 15.4 374.796 15.2C374.596 15.2 374.596 15.2 374.796 15.2Z" fill="black"/>
</g>
<defs>
<clipPath id="clip0_1_1210">
<rect width="379" height="92" fill="black"/>
</clipPath>
</defs>
</svg>
