<svg xmlns="http://www.w3.org/2000/svg" width="237.474" height="39.615" viewBox="0 0 237.474 39.615"><g id="Grupo_265" data-name="Grupo 265" transform="translate(-460.563 -225.841)"><g id="Grupo_265-2" data-name="Grupo 265" transform="translate(538.266 233.997)"><path id="Trazado_268" data-name="Trazado 268" d="M526.384,244.4c0-6.737,5.142-11.652,12.075-11.652a11.256,11.256,0,0,1,8.657,3.547L545,238.348a8.442,8.442,0,0,0-6.411-2.7,8.757,8.757,0,1,0,0,17.51A8.467,8.467,0,0,0,545,250.422l2.115,2.051a11.3,11.3,0,0,1-8.69,3.581C531.526,256.053,526.384,251.139,526.384,244.4Z" transform="translate(-526.384 -232.75)" fill="#142c76"></path><path id="Trazado_269" data-name="Trazado 269" d="M545.55,246.308a8.967,8.967,0,1,1,8.983,8.82A8.584,8.584,0,0,1,545.55,246.308Zm14.776,0c0-3.678-2.474-6.055-5.794-6.055a6.075,6.075,0,0,0,0,12.14C557.852,252.393,560.326,249.985,560.326,246.308Z" transform="translate(-522.924 -231.889)" fill="#142c76"></path><path id="Trazado_270" data-name="Trazado 270" d="M580.782,245.006v9.926h-3.125v-9.569c0-3.383-1.692-5.044-4.654-5.044-3.321,0-5.468,1.987-5.468,5.729v8.885h-3.125v-17.25h2.995v2.6a7.392,7.392,0,0,1,6.215-2.767C577.82,237.519,580.782,239.927,580.782,245.006Z" transform="translate(-519.52 -231.889)" fill="#142c76"></path><path id="Trazado_271" data-name="Trazado 271" d="M581.344,253.11l1.3-2.474a11.072,11.072,0,0,0,6.052,1.79c2.9,0,4.1-.878,4.1-2.342,0-3.873-10.9-.522-10.9-7.389,0-3.092,2.767-5.175,7.193-5.175a12.553,12.553,0,0,1,6.281,1.563l-1.334,2.473a9.015,9.015,0,0,0-4.979-1.367c-2.734,0-4.068,1.008-4.068,2.375,0,4.069,10.935.75,10.935,7.454,0,3.124-2.864,5.11-7.454,5.11A12.449,12.449,0,0,1,581.344,253.11Z" transform="translate(-516.463 -231.889)" fill="#142c76"></path><path id="Trazado_272" data-name="Trazado 272" d="M623.256,237.657l-6.444,17.25h-2.994l-4.979-13.084-5.044,13.084H600.8l-6.411-17.25h2.961l5.012,13.735,5.208-13.735h2.636l5.109,13.8,5.142-13.8Z" transform="translate(-514.109 -231.864)" fill="#142c76"></path><path id="Trazado_273" data-name="Trazado 273" d="M634.926,244.517v10.414h-2.961v-2.278c-1.042,1.563-2.962,2.474-5.663,2.474-3.905,0-6.378-2.082-6.378-5.077,0-2.767,1.788-5.044,6.931-5.044H631.8v-.619c0-2.636-1.53-4.166-4.622-4.166a8.734,8.734,0,0,0-5.468,1.855l-1.3-2.343a11.494,11.494,0,0,1,7.128-2.213C632.258,237.519,634.926,239.8,634.926,244.517Zm-3.124,5.142v-2.408h-4.817c-3.092,0-3.971,1.2-3.971,2.669,0,1.725,1.432,2.8,3.808,2.8A5,5,0,0,0,631.8,249.659Z" transform="translate(-509.499 -231.889)" fill="#142c76"></path><path id="Trazado_274" data-name="Trazado 274" d="M646.818,237.519v3.028a5.419,5.419,0,0,0-.715-.033c-3.353,0-5.435,2.049-5.435,5.826v8.592h-3.125v-17.25h2.995v2.9C641.644,238.56,643.793,237.519,646.818,237.519Z" transform="translate(-506.319 -231.889)" fill="#142c76"></path><path id="Trazado_275" data-name="Trazado 275" d="M664.287,247.349H650.293c.39,3.027,2.832,5.044,6.248,5.044a6.44,6.44,0,0,0,4.979-2.082l1.725,2.016a8.654,8.654,0,0,1-6.8,2.8c-5.565,0-9.275-3.678-9.275-8.82a8.448,8.448,0,0,1,8.658-8.789c4.979,0,8.526,3.581,8.526,8.885C664.352,246.664,664.32,247.055,664.287,247.349ZM650.293,245.1h11.065a5.567,5.567,0,0,0-11.065,0Z" transform="translate(-504.581 -231.889)" fill="#142c76"></path></g><g id="Grupo_267" data-name="Grupo 267" transform="translate(460.562 225.841)"><g id="Grupo_266" data-name="Grupo 266" transform="translate(0 5.399)"><path id="Trazado_276" data-name="Trazado 276" d="M514.34,231.554h0a5.189,5.189,0,0,0-7.285.885l-18.639,23.8a5.189,5.189,0,1,0,8.169,6.4l18.64-23.8A5.189,5.189,0,0,0,514.34,231.554Z" transform="translate(-455.733 -230.409)" fill="#142c76"></path><path id="Trazado_277" data-name="Trazado 277" d="M499.189,231.519h0a5.19,5.19,0,0,0-7.285.885l-14.629,18.677a2.777,2.777,0,0,1-.338.431l-.065.083-.008-.008a2.772,2.772,0,0,1-3.967-3.87l-.041-.04,4.209-5.373a6.585,6.585,0,0,0-10.367-8.121l-4,5.1a6.541,6.541,0,0,0-1.551,7.548c.021.05.048.1.071.145.048.1.094.205.149.3a6.563,6.563,0,0,0,1.146,1.564l10.517,13.427h0a5.184,5.184,0,0,0,8.4.325l18.64-23.8A5.189,5.189,0,0,0,499.189,231.519Z" transform="translate(-460.562 -230.415)" fill="#142c76"></path></g><circle id="Elipse_43" data-name="Elipse 43" cx="3.906" cy="3.906" r="3.906" transform="translate(15.966)" fill="#142c76"></circle></g></g></svg>