<svg width="137" height="36" viewBox="0 0 137 36" fill="none" xmlns="http://www.w3.org/2000/svg">
<path d="M0 33.8475V1.95789L6.35279 0.324219V19.8456L16.7864 9.68971H23.9726L12.5667 20.7715L24.6671 33.8475H16.5516L6.34948 22.812V31.0167C6.34948 32.5809 5.08289 33.8475 3.51867 33.8475H0Z" fill="#0666EB"/>
<path d="M33.3378 34.2641C31.605 34.2641 30.0771 33.9467 28.7477 33.315C27.4183 32.6834 26.3832 31.807 25.6424 30.6959C24.9016 29.5847 24.5312 28.3016 24.5312 26.8465C24.5312 24.5283 25.4043 22.7292 27.1504 21.4461C28.8965 20.163 31.3007 19.5214 34.3597 19.5214C36.463 19.5214 38.4406 19.8455 40.2958 20.4937V18.7311C40.2958 17.3388 39.8626 16.2905 38.9962 15.5795C38.1297 14.8685 36.8631 14.5146 35.1931 14.5146C34.1745 14.5146 33.0766 14.6766 31.9026 15.0007C30.7286 15.3248 29.3661 15.8275 27.8217 16.5087L25.5035 11.826C27.4183 10.9596 29.2504 10.3114 30.9965 9.87816C32.7426 9.44494 34.4986 9.22998 36.2579 9.22998C39.5021 9.22998 42.032 10.0104 43.8376 11.5714C45.6466 13.1323 46.5494 15.3347 46.5494 18.1788V30.9968C46.5494 32.5742 45.2729 33.8508 43.6954 33.8508H40.2892V32.1344C39.3004 32.8752 38.2322 33.4175 37.0913 33.7582C35.9471 34.0988 34.697 34.2674 33.3345 34.2674L33.3378 34.2641ZM30.5566 26.7076C30.5566 27.6336 30.9568 28.371 31.7637 28.9101C32.5673 29.4524 33.6322 29.7203 34.9616 29.7203C36.0132 29.7203 36.9855 29.588 37.8817 29.3268C38.7779 29.0655 39.5815 28.672 40.2925 28.1428V24.6176C39.5187 24.31 38.7151 24.0785 37.8817 23.9231C37.0483 23.7676 36.1488 23.6916 35.1931 23.6916C33.7413 23.6916 32.6037 23.9628 31.7835 24.5018C30.9634 25.0442 30.5533 25.7783 30.5533 26.7043L30.5566 26.7076Z" fill="#0666EB"/>
<path d="M60.4158 34.3105C58.1902 34.3105 56.1332 34.0228 54.2482 33.454C52.3632 32.8819 50.7229 32.0551 49.334 30.9737L52.4856 26.754C53.8778 27.6799 55.2139 28.3777 56.497 28.8407C57.7801 29.3037 59.0533 29.5352 60.3232 29.5352C61.7452 29.5352 62.8795 29.2971 63.7328 28.8176C64.5827 28.338 65.0093 27.713 65.0093 26.9392C65.0093 26.3208 64.7679 25.828 64.2916 25.4543C63.8121 25.0839 63.0482 24.8227 61.9966 24.6672L57.3601 23.9728C54.9493 23.6024 53.1238 22.8219 51.8903 21.6314C50.6535 20.4409 50.0351 18.8733 50.0351 16.9255C50.0351 15.3481 50.4451 13.9988 51.2653 12.8678C52.0854 11.7401 53.2429 10.8604 54.7443 10.2255C56.2424 9.59384 58.0281 9.27637 60.0983 9.27637C61.861 9.27637 63.5839 9.52439 65.2672 10.0171C66.9505 10.5132 68.5346 11.2705 70.0194 12.2891L66.9604 16.4162C65.631 15.5829 64.3644 14.9777 63.1573 14.6073C61.9503 14.2369 60.73 14.0517 59.4932 14.0517C58.3489 14.0517 57.4296 14.27 56.7351 14.6999C56.0406 15.1331 55.6934 15.7052 55.6934 16.4162C55.6934 17.0644 55.9414 17.577 56.4342 17.9474C56.9269 18.3178 57.7801 18.5823 58.9839 18.7345L63.574 19.4289C65.9848 19.7695 67.8235 20.5335 69.0901 21.724C70.3567 22.9145 70.9917 24.4523 70.9917 26.3373C70.9917 27.8817 70.5287 29.2508 69.5994 30.4413C68.6735 31.6318 67.4201 32.5743 65.8426 33.2688C64.2652 33.9633 62.4562 34.3105 60.4191 34.3105H60.4158Z" fill="#0666EB"/>
<path d="M74.1401 33.8474V1.885L80.4929 0V11.6837C82.3151 10.0467 84.5738 9.22659 87.2624 9.22659C89.1474 9.22659 90.8108 9.63666 92.2461 10.4568C93.6846 11.2769 94.8024 12.4046 95.6093 13.8432C96.4129 15.2817 96.8164 16.9584 96.8164 18.8732V31.0463C96.8164 32.594 95.563 33.8507 94.012 33.8507H90.4636V19.7991C90.4636 18.2217 90.0138 16.9783 89.1176 16.0655C88.2214 15.1528 87.0011 14.6964 85.4535 14.6964C84.3721 14.6964 83.413 14.9047 82.5797 15.3214C81.7463 15.7381 81.0485 16.3334 80.4929 17.1072V30.9703C80.4929 32.5576 79.2065 33.8474 77.6158 33.8474H74.1401Z" fill="#0666EB"/>
<path d="M104.786 7.22915C103.798 7.22915 102.948 6.8753 102.237 6.16429C101.526 5.45328 101.172 4.60337 101.172 3.61457C101.172 2.62578 101.526 1.73619 102.237 1.04171C102.948 0.347237 103.798 0 104.786 0C105.775 0 106.665 0.347237 107.359 1.04171C108.054 1.73619 108.401 2.59601 108.401 3.61457C108.401 4.63314 108.054 5.45328 107.359 6.16429C106.665 6.8753 105.805 7.22915 104.786 7.22915ZM101.635 34.2607V10.103H107.988V31.2811C107.988 32.928 106.652 34.2641 105.005 34.2641H101.635V34.2607Z" fill="#274074"/>
<path d="M123.891 35.0871C121.48 35.0871 119.301 34.5315 117.353 33.417C115.405 32.3059 113.861 30.8045 112.716 28.9195C111.572 27.0345 111 24.918 111 22.5667C111 20.2154 111.562 18.0923 112.693 16.1907C113.821 14.2892 115.365 12.7812 117.33 11.67C119.291 10.5589 121.48 10 123.891 10C126.302 10 128.488 10.5556 130.452 11.67C132.413 12.7812 133.961 14.2892 135.088 16.1907C136.216 18.0923 136.782 20.2187 136.782 22.5667C136.782 24.9147 136.216 27.0345 135.088 28.9195C133.961 30.8045 132.423 32.3026 130.475 33.417C128.527 34.5282 126.331 35.0871 123.891 35.0871ZM123.891 29.571C125.157 29.571 126.295 29.2634 127.3 28.645C128.306 28.0266 129.109 27.1833 129.711 26.1184C130.313 25.0536 130.614 23.8697 130.614 22.57C130.614 21.2703 130.313 20.05 129.711 18.9984C129.109 17.9468 128.306 17.1068 127.3 16.4718C126.295 15.8402 125.161 15.5227 123.891 15.5227C122.621 15.5227 121.526 15.8402 120.508 16.4718C119.489 17.1068 118.682 17.9468 118.097 18.9984C117.508 20.05 117.217 21.2406 117.217 22.57C117.217 23.8994 117.512 25.0503 118.097 26.1184C118.682 27.1833 119.489 28.0266 120.508 28.645C121.526 29.2634 122.657 29.571 123.891 29.571Z" fill="#274074"/>
</svg>
